HIERARCHY
ROOT Hips
{
  OFFSET -374.423 94.5116 -330.329
  CHANNELS 6 Xposition Yposition Zposition Zrotation Xrotation Yrotation
  JOINT Spine
  {
    OFFSET 1.81723e-005 10 0
    CHANNELS 3 Zrotation Xrotation Yrotation
    JOINT Neck
    {
      OFFSET 9.46149e-005 30.0003 0
      CHANNELS 3 Zrotation Xrotation Yrotation
      JOINT Head
      {
        OFFSET -2.34365e-005 10 1.0083e-005
        CHANNELS 3 Zrotation Xrotation Yrotation
        End Site
        {
          OFFSET 0 15 0
        }
      }
      JOINT LeftArm
      {
        OFFSET 14.8446 -2.07136 -0.590425
        CHANNELS 3 Zrotation Xrotation Yrotation
        JOINT LeftForeArm
        {
          OFFSET 25 1.85044e-005 -1.81144e-005
          CHANNELS 3 Zrotation Xrotation Yrotation
          JOINT LeftHand
          {
            OFFSET 25 2.52872e-005 -1.27824e-005
            CHANNELS 3 Zrotation Xrotation Yrotation
            End Site
            {
              OFFSET 10 0 0
            }
          }
        }
      }
      JOINT RightArm
      {
        OFFSET -14.8446 2.07073 0.590557
        CHANNELS 3 Zrotation Xrotation Yrotation
        JOINT RightForeArm
        {
          OFFSET -25 -8.25455e-005 -1.42416e-005
          CHANNELS 3 Zrotation Xrotation Yrotation
          JOINT RightHand
          {
            OFFSET -25 0 0
            CHANNELS 3 Zrotation Xrotation Yrotation
            End Site
            {
              OFFSET -15 0 0
            }
          }
        }
      }
    }
  }
  JOINT LeftUpLeg
  {
    OFFSET 10 -10 2.12341e-005
    CHANNELS 3 Zrotation Xrotation Yrotation
    JOINT LeftLeg
    {
      OFFSET -0.000124842 -35 0.000334224
      CHANNELS 3 Zrotation Xrotation Yrotation
      JOINT LeftFoot
      {
        OFFSET 3.10853e-005 -40.0001 -2.05275e-005
        CHANNELS 3 Zrotation Xrotation Yrotation
        End Site
        {
          OFFSET 0 0 15
        }
      }
    }
  }
  JOINT RightUpLeg
  {
    OFFSET -9.99999 -10 0
    CHANNELS 3 Zrotation Xrotation Yrotation
    JOINT RightLeg
    {
      OFFSET 5.37648e-005 -35 -0.000361204
      CHANNELS 3 Zrotation Xrotation Yrotation
      JOINT RightFoot
      {
        OFFSET 1.46514e-005 -40 -2.99228e-005
        CHANNELS 3 Zrotation Xrotation Yrotation
        End Site
        {
          OFFSET 0 0 15
        }
      }
    }
  }
}
MOTION
Frames:	15
Frame Time:	0.0333333
0.230827 18.8011 45.7772 -160.499 -78.1866 -159.869 7.67565 17.8591 3.37107 6.48487 56.4895 0.689886 4.55648 -8.77505 1.9012 -32.9518 -24.9587 -80.4366 0.00132723 -0.0744305 -81.9105 37.896 17.7855 -10.0794 66.6134 -22.9761 75.8069 0.00718898 -0.00512926 31.2601 -0.142879 -17.0722 -3.66367 52.9437 -55.4576 64.2653 -179.127 68.9916 -177.175 -58.4321 23.3891 4.7446 -10.8082 -80.1804 -21.5682 -0.0984709 55.1168 2.60734 25.4783 19.0653 -5.89245 
2.48518 20.8073 48.6381 131.66 -88.0574 146.655 7.40417 15.4119 1.54713 13.1316 62.5686 -3.9827 9.13793 -13.1483 2.39485 -33.7501 -21.4361 -77.1418 0.0430591 -0.0607988 -73.352 34.3152 19.1118 -9.02101 67.3767 -27.0432 82.2208 0.00455344 -0.00389581 25.8369 3.55448 -19.187 -3.25433 37.2614 -51.0039 49.8394 -178.878 74.0331 -175.192 -62.6091 21.5614 12.2786 -15.2863 -74.6457 -26.0056 -0.0992411 56.4594 3.93348 24.2084 17.868 -5.02752 
4.79973 24.0236 52.9437 31.3079 -79.1238 59.5048 7.78844 14.5681 0.314402 21.7877 63.2014 -11.6243 12.3436 -14.4601 2.32322 -31.9689 -18.0052 -70.7955 0.0207004 -0.061631 -65.2375 31.1648 21.0056 -7.82992 65.7413 -31.4577 86.8699 0.00168105 -0.00169681 26.6983 3.25125 -19.0043 -2.48011 31.5743 -46.6185 52.0117 -178.722 76.2935 -174.769 -65.8451 17.7055 17.9282 -17.5163 -71.5488 -26.1462 -0.0925282 56.6835 5.23096 21.3912 14.0429 -5.57454 
7.34252 27.7566 58.784 21.8583 -68.9141 61.557 8.69388 15.5073 0.268254 28.4609 57.4929 -17.3864 12.0605 -12.6005 0.181227 -31.2632 -11.4837 -62.47 0.0245422 -0.0507517 -55.6742 28.3025 23.6092 -6.82183 60.2192 -35.3256 89.4059 0.000244186 -0.000153022 31.0089 1.05399 -18.3736 -1.25235 31.4542 -46.9235 62.4241 -179.072 72.5662 -174.926 -63.8606 26.733 9.91994 -15.9826 -70.66 -21.7224 -0.0798515 55.8223 6.18645 18.1546 9.47646 -6.91968 
9.86636 31.9554 65.037 17.3044 -60.1148 65.9046 9.70611 18.465 0.654701 31.5921 47.6464 -19.7934 9.74873 -8.44227 -2.35595 -33.3328 -1.43682 -52.234 0.025521 -0.0365418 -43.2318 30.2095 25.8882 -9.84833 50.1838 -36.2301 89.5481 -0.0010994 -0.00049384 38.5971 -1.76083 -18.4161 0.00445018 31.6162 -50.0916 68.2731 -179.416 65.1273 -175.13 -64.6675 36.0222 5.57828 -8.53252 -68.5068 -12.2517 -0.0679879 50.9407 6.85087 16.5398 7.60051 -6.66592 
12.7105 36.7587 71.2734 12.8341 -51.4146 68.1816 9.68785 21.2317 0.862559 32.8998 38.1778 -21.1834 7.62022 -5.83038 -3.52594 -36.7202 8.61909 -41.7115 0.0185097 -0.0229985 -32.5872 38.5267 25.86 -17.2026 38.9661 -33.1743 89.96 -0.00118188 -0.00371476 50.7187 -4.76958 -17.7242 0.760334 33.1117 -51.9174 70.577 -179.644 58.2127 -174.505 -62.3153 36.5634 6.42377 -2.39363 -65.3326 -6.20706 -0.0470042 42.6305 7.09038 17.383 9.0095 -4.89788 
16.0116 42.0791 77.67 6.7832 -42.4489 68.5824 8.521 22.5788 1.31439 32.9505 30.4092 -21.6713 6.8209 -5.34301 -4.46752 -40.8029 15.5619 -33.7427 0.00236149 -0.0135767 -28.4871 38.5698 25.7598 -16.2582 28.623 -27.9442 90.6013 1.40326e-005 -0.00688753 66.1777 -5.92407 -13.4062 1.46693 35.6674 -52.0807 71.9855 -179.867 53.8299 -173.641 -56.6461 32.0969 8.17463 0.331587 -63.5115 -3.40767 -0.0418514 32.6337 6.25235 21.8103 16.328 -1.4688 
19.7973 47.3369 84.5033 1.16969 -34.5316 69.2807 8.34206 22.8442 2.15341 31.0045 24.5728 -20.5038 6.91236 -6.24443 -5.37207 -43.6294 20.955 -29.2757 0.00599356 -0.0119 -25.258 31.1772 26.5723 -10.9274 18.7354 -21.9064 89.5333 0.00244001 -0.0104798 80.7542 -3.9973 -3.56134 2.76666 37.4913 -49.7247 70.2875 179.876 51.1621 -174.726 -56.5846 31.8239 9.36799 1.4451 -65.4052 2.33049 -0.0608936 27.2878 3.93582 30.0061 28.2826 1.62792 
23.7541 52.1747 91.1213 -3.03849 -28.2878 70.8054 9.60123 22.3908 2.78709 28.1393 20.0904 -19.3693 6.66703 -8.2741 -5.44139 -46.0585 26.4968 -25.9695 0.007164 -0.0103294 -19.1716 14.809 25.1739 0.12797 8.59264 -15.0286 88.0356 0.00555082 -0.0131015 91.7053 -1.3145 7.20044 3.57182 38.2441 -45.5621 64.5263 179.793 51.2128 -176.544 -55.3361 41.6006 4.41328 -0.614309 -74.1703 3.807 -0.0406716 38.6413 2.32521 30.4925 26.7909 2.06526 
27.7445 56.7564 97.0252 -7.00923 -22.9891 71.8823 10.8971 21.4347 3.14771 25.6573 15.6138 -18.2604 6.10231 -10.6356 -5.51817 -52.999 29.59 -18.6983 0.000709052 -0.00649543 -14.0162 -4.36679 20.0339 11.7571 -1.46801 -8.2116 86.9588 0.00855389 -0.0142021 100.386 0.624912 13.1889 3.46295 38.596 -40.5524 58.602 179.913 54.7246 -178.204 -52.4503 50.8661 -3.10446 -14.8421 -83.8947 -13.3334 0.0183912 55.8176 2.03157 18.5969 14.3786 2.49388 
32.2836 60.6665 102.863 -10.5941 -18.5332 72.4038 11.4246 20.5704 3.10776 24.4193 11.2021 -16.0062 5.32916 -12.7308 -6.46533 -63.5245 30.7404 -6.7299 -0.00463784 -0.00286201 -13.2725 -13.4228 18.5154 15.3801 -9.25035 -1.80099 85.3149 0.0107325 -0.0132641 108.731 2.34758 15.0879 3.17103 38.1175 -33.8969 53.4179 -179.997 60.9134 179.528 -50.4314 57.8865 -11.583 -115.123 -87.5639 -118.996 0.0359331 69.494 2.0404 4.57599 2.36494 -0.822676 
37.1071 63.9453 108.491 -13.0279 -15.4199 73.8182 11.7552 20.0467 2.25096 24.5571 7.94199 -13.4271 4.30806 -14.5283 -8.04713 -73.5133 35.2225 6.23934 -0.0043137 -0.000510655 -16.5882 -12.3216 16.6306 13.044 -12.3384 4.34426 82.3716 0.0118743 -0.00986147 116.607 3.02703 14.8176 3.53623 35.534 -27.2132 46.5621 -179.817 69.8937 177.455 -47.3245 64.6401 -23.6038 -122.251 -85.1532 -129.485 0.0429329 76.392 2.04808 1.05752 -3.38418 -5.36865 
42.0923 66.9243 113.686 -14.7633 -13.3827 76.6686 12.6006 19.0246 0.753386 25.1853 5.93521 -11.508 2.7819 -16.2196 -9.93018 -83.7942 41.1457 19.1341 0.00102871 0.00132159 -21.4774 -10.6898 12.5778 9.96541 -10.5542 10.5198 77.9235 0.0111874 -0.00344475 122.687 1.73331 11.2197 4.62071 31.0794 -22.8016 37.7128 -179.358 80.9979 176.489 -46.7437 68.311 -30.3511 -89.767 -83.5048 -97.6027 0.15213 78.2737 1.79555 7.39352 -4.50494 -7.17476 
47.3071 69.8302 118.462 -16.1614 -11.8765 79.3801 13.7193 17.6691 -0.935799 25.5371 4.41366 -9.59085 0.709773 -17.5368 -11.8735 -95.0391 45.0202 32.5907 -0.0032964 0.00264853 -26.623 -12.1343 9.60093 8.11149 -5.354 17.2213 72.5929 0.00056997 0.000440132 126.24 -1.45461 5.63614 5.60105 25.8088 -19.6872 28.582 -1.82889 87.1993 0.154643 -45.284 67.9638 -30.5198 -64.9539 -81.8982 -73.8512 0.239476 79.9571 1.80695 8.60948 -7.56785 -8.37386 
52.7642 72.7638 122.822 -17.6492 -10.2009 80.1112 14.2744 16.6647 -2.48778 25.4018 2.96255 -6.79644 -1.11918 -18.2889 -13.1539 -105.936 45.1978 45.5357 -0.00266275 0.00347219 -31.6627 -13.5951 7.61718 6.77128 1.63996 24.0944 67.2903 -0.0325012 0.00372802 127.19 -5.88976 2.38962 5.91943 19.6289 -15.7305 20.2892 -0.272309 74.0466 0.113761 -46.851 65.5337 -24.0371 -39.6855 -80.7342 -49.7501 0.252085 80.7422 2.02845 6.57951 -11.7895 -9.44992 
